# This file uses centimeters as units for non-parametric coordinates.

v 34.378777 72.470032 5.952454
v 44.622231 49.462883 5.952415
v 35.444908 72.944717 5.469055
v 44.180603 49.266266 7.119446
v 33.937149 72.273422 7.119446
v 34.378777 72.470024 8.286514
v 44.622231 49.462883 8.286514
v 35.444908 72.944717 8.769913
v 45.688362 49.937553 8.769913
v 36.697044 73.502197 8.035889
v 46.940460 50.495033 8.035889
v 46.940460 50.495037 6.203041
v 36.697044 73.502205 6.203003
v 45.688362 49.937553 5.469017
v 44.622231 49.462883 -5.960274
v 34.378777 72.470039 -5.960236
v 44.180603 49.266266 -7.127304
v 33.937149 72.273422 -7.127304
v 44.622231 49.462883 -8.294334
v 34.378777 72.470039 -8.294373
v 45.688362 49.937557 -8.777733
v 35.444908 72.944717 -8.777771
v 46.940460 50.495041 -8.043747
v 36.697044 73.502197 -8.043747
v 47.193069 50.607494 -7.040672
v 36.949615 73.614655 -7.040634
v 46.754494 50.412235 -5.960274
v 36.511040 73.419395 -5.960236
v 45.724220 49.953510 -5.583305
v 35.480766 72.960678 -5.583344
v 36.135712 73.252274 5.620117
v 46.379166 50.245125 5.620155
v 36.932335 73.606964 7.175751
v 47.175789 50.599808 7.175751
v 34.016552 72.308769 6.501999
v 44.259987 49.301609 6.501999
v 34.891186 72.698189 5.590820
v 45.134621 49.691025 5.590858
v 34.880409 72.693390 8.690872
v 45.123863 49.686222 8.690872
v 34.055901 72.326294 7.728958
v 44.299355 49.319126 7.728958
v 36.184387 73.273956 8.535004
v 46.427841 50.266800 8.535004
v 36.844749 73.567978 -6.441650
v 47.088203 50.560814 -6.441650
v 36.911697 73.597763 -7.605057
v 47.155151 50.590611 -7.605057
v 36.176529 73.270439 -8.552475
v 46.419983 50.263294 -8.552475
v 34.844761 72.677513 -8.664169
v 45.088196 49.670357 -8.664207
v 34.041519 72.319885 -7.758331
v 44.284973 49.312729 -7.758369
v 34.032726 72.315971 -6.497726
v 44.276161 49.308811 -6.497688
v 34.884300 72.695129 -5.649033
v 45.127754 49.687958 -5.649071
v 36.046982 73.212769 -5.683670
v 46.290436 50.205608 -5.683670
vt 0.300608 -0.131381
vt 0.300648 -0.800736
vt 0.263325 -0.131383
vt 0.039650 -0.800735
vt 0.337892 -0.131378
vt 0.337936 -0.800735
vt 0.039628 -0.131391
vt 0.076911 -0.131390
vt 0.076934 -0.800736
vt 0.114194 -0.131388
vt 0.114218 -0.800736
vt 0.160798 -0.131387
vt 0.160824 -0.800737
vt 0.216753 -0.800737
vt 0.216722 -0.131385
vt 0.263362 -0.800737
vt 0.611616 -0.131370
vt 0.611619 -0.800737
vt 0.350636 -0.131368
vt 0.648900 -0.131368
vt 0.648903 -0.800737
vt 0.350630 -0.800734
vt 0.387919 -0.131370
vt 0.387915 -0.800734
vt 0.425201 -0.131371
vt 0.425199 -0.800735
vt 0.471805 -0.131372
vt 0.471804 -0.800736
vt 0.499767 -0.131372
vt 0.499767 -0.800736
vt 0.537050 -0.131372
vt 0.537051 -0.800737
vt 0.573079 -0.131371
vt 0.573081 -0.800737
vt 0.241860 -0.131384
vt 0.241895 -0.800737
vt 0.188099 -0.131386
vt 0.188128 -0.800737
vt 0.320073 -0.131379
vt 0.320115 -0.800735
vt 0.281294 -0.131382
vt 0.281333 -0.800737
vt 0.096213 -0.131389
vt 0.096236 -0.800736
vt 0.057698 -0.131391
vt 0.057720 -0.800735
vt 0.138462 -0.131387
vt 0.138487 -0.800737
vt 0.519421 -0.800737
vt 0.519420 -0.131372
vt 0.486499 -0.800736
vt 0.486500 -0.131372
vt 0.450354 -0.800736
vt 0.450355 -0.131372
vt 0.406259 -0.800735
vt 0.406262 -0.131370
vt 0.369602 -0.800734
vt 0.369607 -0.131369
vt 0.631204 -0.800737
vt 0.631201 -0.131369
vt 0.592625 -0.800737
vt 0.592622 -0.131370
vt 0.554577 -0.800737
vt 0.554576 -0.131372
vn -0.629794 -0.280402 -0.724385
vn -0.629793 -0.280402 -0.724386
vn -0.349597 -0.155651 -0.923880
vn -0.349598 -0.155651 -0.923880
vn -0.912983 -0.406486 0.035090
vn -0.912983 -0.406486 0.035090
vn -0.844001 -0.375773 -0.382697
vn -0.844000 -0.375773 -0.382699
vn -0.666209 -0.296616 0.684240
vn -0.666209 -0.296616 0.684240
vn -0.844007 -0.375777 0.382681
vn -0.844006 -0.375776 0.382683
vn 0.099168 0.044153 0.994091
vn 0.099169 0.044153 0.994091
vn -0.349596 -0.155650 0.923881
vn -0.349598 -0.155651 0.923880
vn 0.782550 0.348413 0.515969
vn 0.782550 0.348413 0.515969
vn 0.431289 0.192022 0.881543
vn 0.431289 0.192022 0.881543
vn 0.796884 0.354794 -0.488976
vn 0.796884 0.354795 -0.488975
vn 0.913546 0.406736 0.000001
vn 0.913546 0.406736 0.000002
vn 0.019642 0.008745 -0.999769
vn 0.019641 0.008745 -0.999769
vn 0.431272 0.192014 -0.881553
vn 0.431271 0.192013 -0.881553
vn -0.844003 -0.375774 0.382691
vn -0.615002 -0.273817 0.739457
vn -0.615001 -0.273817 0.739458
vn -0.844004 -0.375774 0.382689
vn -0.844003 -0.375775 -0.382690
vn -0.913519 -0.406725 -0.007642
vn -0.913519 -0.406725 -0.007641
vn -0.844004 -0.375775 -0.382688
vn -0.349599 -0.155651 -0.923880
vn -0.655525 -0.291858 -0.696496
vn -0.655524 -0.291858 -0.696496
vn -0.349598 -0.155651 -0.923880
vn 0.431280 0.192018 -0.881548
vn 0.069803 0.031078 -0.997077
vn 0.069801 0.031077 -0.997077
vn 0.431280 0.192018 -0.881548
vn 0.880702 0.392114 -0.265728
vn 0.696271 0.309999 -0.647385
vn 0.696270 0.309999 -0.647386
vn 0.880701 0.392114 -0.265729
vn 0.834837 0.371693 0.406068
vn 0.911739 0.405932 0.062858
vn 0.911739 0.405932 0.062860
vn 0.834837 0.371693 0.406069
vn -0.272466 -0.121311 0.954487
vn 0.024840 0.011060 0.999630
vn 0.024839 0.011059 0.999630
vn -0.272467 -0.121311 0.954487
vn 0.289581 0.128930 0.948430
vn 0.598823 0.266613 0.755201
vn 0.598826 0.266614 0.755198
vn 0.289583 0.128931 0.948429
g stanchions Fork bike
f 2/2/1 1/1/2 37/41/3 38/42/4
f 4/6/5 5/5/6 35/39/7 36/40/8
f 7/9/9 6/8/10 41/45/11 42/46/12
f 9/11/13 8/10/14 39/43/15 40/44/16
f 11/13/17 10/12/18 43/47/19 44/48/20
f 12/14/21 13/15/22 33/37/23 34/38/24
f 14/16/25 3/3/26 31/35/27 32/36/28
f 56/60/29 15/17/30 16/18/31 55/59/32
f 54/58/33 17/19/34 18/22/35 53/57/36
f 52/56/37 19/23/38 20/24/39 51/55/40
f 50/54/41 21/25/42 22/26/43 49/53/44
f 48/52/45 23/27/46 24/28/47 47/51/48
f 46/50/49 25/29/50 26/30/51 45/49/52
f 58/62/53 29/33/54 30/34/55 57/61/56
f 60/64/57 27/31/58 28/32/59 59/63/60
f 32/36/28 31/35/27 13/15/22 12/14/21
f 34/38/24 33/37/23 10/12/18 11/13/17
f 36/40/8 35/39/7 1/1/2 2/2/1
f 38/42/4 37/41/3 3/3/26 14/16/25
f 40/44/16 39/43/15 6/8/10 7/9/9
f 42/46/12 41/45/11 5/7/6 4/4/5
f 44/48/20 43/47/19 8/10/14 9/11/13
f 27/31/58 46/50/49 45/49/52 28/32/59
f 25/29/50 48/52/45 47/51/48 26/30/51
f 23/27/46 50/54/41 49/53/44 24/28/47
f 21/25/42 52/56/37 51/55/40 22/26/43
f 19/23/38 54/58/33 53/57/36 20/24/39
f 17/20/34 56/60/29 55/59/32 18/21/35
f 15/17/30 58/62/53 57/61/56 16/18/31
f 29/33/54 60/64/57 59/63/60 30/34/55
