# This file uses centimeters as units for non-parametric coordinates.

v -33.697433 84.954346 2.530594
v -33.643436 85.048523 2.665710
v -33.608189 85.214844 2.691956
v -33.612328 85.355904 2.593918
v -33.640728 85.393509 2.471390
v -33.667011 85.376289 2.388687
v -33.694553 85.328537 2.319565
v -33.745651 85.086945 2.281799
v -33.731041 84.967094 2.404251
v -26.361141 85.938751 2.117386
v -27.493401 85.767540 2.268677
v -27.521648 85.935509 2.302551
v -27.545605 86.077896 2.206116
v -27.551975 86.115883 2.080078
v -27.549057 86.098488 1.993256
v -27.540951 86.050270 1.919479
v -27.499924 85.806343 1.870575
v -27.479572 85.685341 1.993256
v -25.834122 86.219246 2.084885
v -26.391640 86.051338 2.243500
v -26.445522 86.214371 2.251205
v -26.491222 86.332329 2.135925
v -26.503410 86.347504 2.007523
v -26.497822 86.317139 1.925735
v -26.482353 86.259972 1.861191
v -26.404095 86.023254 1.850433
v -26.365261 85.929634 1.988068
v -22.639866 88.233971 1.112671
v -25.881901 86.355667 2.179871
v -25.966301 86.503769 2.149048
v -26.037884 86.576782 2.010498
v -26.056957 86.554100 1.883392
v -26.048222 86.503792 1.811752
v -26.023998 86.434380 1.763077
v -25.901394 86.219437 1.808167
v -25.840588 86.174515 1.962585
v -22.286396 88.362617 1.023788
v -22.683144 88.390221 1.174774
v -22.759590 88.531563 1.109085
v -22.824421 88.575211 0.954056
v -22.841702 88.525726 0.833054
v -22.833786 88.460403 0.773849
v -22.811832 88.380821 0.741806
v -22.700806 88.175766 0.837555
v -22.645721 88.163490 1.001663
v -19.275169 88.597458 0.844269
v -22.318707 88.522621 1.083069
v -22.375774 88.670563 1.012344
v -22.424164 88.719803 0.852966
v -22.437077 88.671829 0.730820
v -22.431164 88.605812 0.672150
v -22.414780 88.524345 0.641556
v -22.331886 88.309662 0.744705
v -22.290783 88.292664 0.912399
v -19.277153 88.761871 0.900116
v -19.280643 88.917595 0.823364
v -19.283619 88.973450 0.659027
v -19.284401 88.927208 0.535507
v -19.284039 88.860397 0.477371
v -19.283047 88.776680 0.448608
v -19.277954 88.550720 0.560379
v -19.275436 88.528091 0.732422
v -36.836281 87.255806 3.003540
v -36.778450 87.413910 3.037109
v -36.730003 87.547974 2.940445
v -36.717529 87.583702 2.814255
v -36.723900 87.567345 2.727585
v -36.740799 87.521957 2.653885
v -36.824760 87.292336 2.605515
v -36.865768 87.178421 2.728424
v -36.869583 87.166313 2.859344
v -38.415146 87.466049 2.858887
v -38.402481 87.561646 3.003311
v -38.380089 87.730492 3.037262
v -38.361130 87.873657 2.940826
v -38.358421 87.894341 2.727966
v -38.356094 87.911812 2.814713
v -38.364830 87.845879 2.654114
v -38.397293 87.600655 2.605209
v -38.413429 87.478996 2.727966
v -27.477398 85.672455 2.124252
v -36.869583 87.166306 -2.859344
v -36.717529 87.583710 -2.814255
v -36.740799 87.521957 -2.653885
v -36.795464 87.372879 -2.587662
v -36.865768 87.178429 -2.728424
v -33.697433 84.954338 -2.530594
v -33.643436 85.048523 -2.665710
v -33.608189 85.214851 -2.691956
v -33.612328 85.355896 -2.593918
v -33.640728 85.393509 -2.471390
v -33.694553 85.328537 -2.319565
v -33.737183 85.171684 -2.261658
v -33.731041 84.967094 -2.404251
v -27.477398 85.672455 -2.124252
v -27.493401 85.767548 -2.268677
v -27.521648 85.935501 -2.302551
v -27.545605 86.077904 -2.206116
v -26.361141 85.938774 -2.117386
v -26.391640 86.051353 -2.243500
v -26.445522 86.214371 -2.251205
v -26.491222 86.332321 -2.135925
v -27.551975 86.115883 -2.080002
v -27.540951 86.050270 -1.919479
v -27.514305 85.891907 -1.852951
v -27.479572 85.685341 -1.993256
v -26.503410 86.347519 -2.007523
v -26.482353 86.259979 -1.861191
v -26.431541 86.100655 -1.820374
v -26.365261 85.929634 -1.988068
v -25.834122 86.219238 -2.084885
v -25.881901 86.355667 -2.179871
v -25.966301 86.503769 -2.149048
v -26.037884 86.576782 -2.010498
v -26.056957 86.554100 -1.883392
v -26.023998 86.434387 -1.763077
v -25.944405 86.280228 -1.761093
v -25.840588 86.174522 -1.962585
v -22.639866 88.233963 -1.112671
v -22.683144 88.390213 -1.174774
v -22.759590 88.531578 -1.109085
v -22.824421 88.575211 -0.954056
v -22.841702 88.525719 -0.833054
v -22.811832 88.380821 -0.741806
v -22.739754 88.226524 -0.776367
v -22.645721 88.163506 -1.001663
v -22.286396 88.362610 -1.023788
v -22.318707 88.522614 -1.083069
v -22.375774 88.670570 -1.012344
v -22.424164 88.719803 -0.852966
v -19.275169 88.597450 -0.844269
v -19.277153 88.761864 -0.900116
v -19.280643 88.917603 -0.823364
v -19.283619 88.973450 -0.659027
v -22.437077 88.671822 -0.730820
v -22.414780 88.524330 -0.641556
v -22.360973 88.363800 -0.680923
v -22.290783 88.292641 -0.912399
v -19.284401 88.927216 -0.535507
v -19.283047 88.776695 -0.448608
v -19.279747 88.608810 -0.493546
v -19.275436 88.528084 -0.732422
v -38.415146 87.466057 -2.858887
v -38.402481 87.561653 -3.003311
v -36.836281 87.255814 -3.003540
v -38.380089 87.730484 -3.037262
v -36.778450 87.413910 -3.037109
v -36.730003 87.547966 -2.940445
v -38.361130 87.873650 -2.940826
v -38.356094 87.911819 -2.814713
v -38.364830 87.845886 -2.654114
v -38.385925 87.686676 -2.587585
v -38.413429 87.478996 -2.727966
v -19.277058 88.530464 -0.605641
v -22.317272 88.291412 -0.788425
v -22.681217 88.159187 -0.879994
v -25.879795 86.195068 -1.845031
v -26.390295 85.986740 -1.879858
v -27.492691 85.763321 -1.894140
v -33.745892 85.044289 -2.306152
v -36.839455 87.251770 -2.629253
v -38.403023 87.557381 -2.628794
v -34.034191 85.179901 2.885764
v -34.283546 85.315193 2.959914
v -34.096413 85.091331 2.750914
v -34.345436 85.228271 2.823236
v -33.965164 85.335800 2.906404
v -34.212318 85.470963 2.983597
v -33.925282 85.465950 2.797382
v -34.170425 85.601967 2.880364
v -33.931915 85.499680 2.668354
v -34.177082 85.638306 2.754068
v -33.953117 85.482681 2.583359
v -34.198654 85.622932 2.669601
v -33.984928 85.437767 2.514786
v -34.229504 85.578384 2.599684
v -34.089832 85.213470 2.489441
v -34.334843 85.353653 2.565657
v -34.114315 85.102402 2.620414
v -34.361309 85.240273 2.693483
v -34.345436 85.228264 -2.823236
v -34.096413 85.091324 -2.750914
v -34.034191 85.179909 -2.885764
v -34.283546 85.315208 -2.959914
v -33.965164 85.335800 -2.906403
v -34.212318 85.470963 -2.983597
v -33.925282 85.465942 -2.797382
v -34.170425 85.601959 -2.880364
v -33.931927 85.499687 -2.668360
v -34.177223 85.638420 -2.754071
v -33.984505 85.437614 -2.514500
v -34.229393 85.578308 -2.599681
v -34.057617 85.291351 -2.463179
v -34.302055 85.431412 -2.543339
v -34.114281 85.102386 -2.620395
v -34.361317 85.240280 -2.693483
v -34.101055 85.173485 -2.515716
v -34.346123 85.312286 -2.591392
v -32.959629 84.977142 2.182001
v -33.270729 84.955544 2.271262
v -33.240177 85.050926 2.413560
v -32.929886 85.073181 2.322632
v -33.239548 85.219299 2.452116
v -32.930084 85.242470 2.357980
v -33.268009 85.362022 2.363588
v -32.958717 85.386032 2.267309
v -33.303028 85.400017 2.245313
v -32.994576 85.423637 2.146441
v -33.318958 85.382690 2.158135
v -33.009968 85.406555 2.062537
v -33.334263 85.334396 2.084895
v -33.025055 85.357880 1.990621
v -33.336231 85.089851 2.030092
v -33.025448 85.111893 1.939740
v -33.303276 84.968468 2.145703
v -32.992252 84.989853 2.056063
v -33.270729 84.955551 -2.271262
v -32.959629 84.977150 -2.182001
v -33.240227 85.050926 -2.413590
v -32.929832 85.073189 -2.322632
v -33.239548 85.219307 -2.452116
v -32.930084 85.242477 -2.357980
v -33.267902 85.362030 -2.363517
v -32.958843 85.386024 -2.267311
v -33.299187 85.400085 -2.242742
v -32.990105 85.424194 -2.146384
v -33.334743 85.334389 -2.085208
v -33.025314 85.357857 -1.990624
v -33.033836 85.198090 -1.924116
v -33.344059 85.175652 -2.015804
v -33.303696 84.968468 -2.145958
v -32.992741 84.989792 -2.056069
v -33.018028 85.068565 -1.961761
v -33.328964 85.046722 -2.051636
vn 0.140752 -0.946669 0.289840
vn 0.295396 -0.857156 0.421929
vn 0.188630 -0.416833 0.889196
vn 0.090976 -0.549945 0.830231
vn -0.029394 0.297804 0.954174
vn -0.013155 0.186831 0.982304
vn -0.217423 0.811622 0.542215
vn -0.100327 0.760905 0.641060
vn -0.299570 0.953386 -0.036222
vn -0.139907 0.985347 0.097555
vn -0.283115 0.812381 -0.509787
vn -0.135894 0.910741 -0.389979
vn -0.123005 0.207625 -0.970444
vn -0.065541 0.361934 -0.929897
vn 0.057742 -0.368168 -0.927965
vn 0.015914 -0.211018 -0.977353
vn 0.263916 -0.907520 -0.326737
vn 0.118858 -0.873647 -0.471820
vn 0.522968 -0.555882 0.646142
vn 0.289659 -0.020528 0.956910
vn -0.128595 0.593309 0.794637
vn -0.446981 0.857579 0.254494
vn -0.559862 0.764991 -0.318344
vn -0.505272 0.482589 -0.715408
vn -0.179688 -0.172464 -0.968488
vn 0.154975 -0.624782 -0.765265
vn 0.508888 -0.859835 -0.041438
vn 0.516073 -0.508845 0.689018
vn 0.257807 0.067489 0.963837
vn -0.158984 0.655228 0.738513
vn -0.450830 0.869471 0.201922
vn -0.554602 0.757410 -0.344597
vn -0.502761 0.468440 -0.726495
vn -0.195373 -0.176674 -0.964684
vn 0.130779 -0.622856 -0.771328
vn 0.509282 -0.860545 -0.009755
vn 0.125667 -0.568768 0.812841
vn 0.068143 0.111357 0.991441
vn -0.035874 0.787291 0.615537
vn -0.111791 0.993725 0.003629
vn -0.139469 0.839938 -0.524454
vn -0.128667 0.505161 -0.853380
vn -0.056215 -0.219293 -0.974038
vn 0.021015 -0.707953 -0.705946
vn 0.117110 -0.982957 0.141704
vn 0.093695 -0.579192 0.809789
vn 0.053625 0.078254 0.995490
vn -0.022418 0.767517 0.640636
vn -0.079372 0.996714 0.016137
vn -0.100892 0.843705 -0.527241
vn -0.093877 0.504633 -0.858215
vn -0.040305 -0.240181 -0.969891
vn 0.016953 -0.736072 -0.676691
vn 0.086472 -0.983542 0.158646
vn -0.452455 -0.827327 0.332887
vn -0.225255 -0.438897 0.869845
vn -0.104703 -0.536581 0.837328
vn -0.182611 -0.939252 0.290617
vn 0.147239 0.237009 0.960285
vn 0.042629 0.213140 0.976091
vn 0.153309 0.768205 0.621577
vn 0.392591 0.710286 0.584266
vn 0.474898 0.877725 0.063806
vn 0.195279 0.976103 0.095333
vn 0.432868 0.809408 -0.396842
vn 0.181644 0.908735 -0.375775
vn 0.184348 0.362142 -0.913712
vn 0.077746 0.390719 -0.917221
vn -0.081136 -0.127699 -0.988489
vn -0.033335 -0.173080 -0.984343
vn -0.435655 -0.774874 -0.458012
vn -0.168213 -0.864996 -0.472743
vn 0.140754 -0.946673 -0.289827
vn 0.090978 -0.549952 -0.830226
vn 0.188636 -0.416849 -0.889187
vn 0.295396 -0.857147 -0.421948
vn -0.013153 0.186820 -0.982306
vn -0.029395 0.297810 -0.954173
vn -0.100333 0.760932 -0.641027
vn -0.217420 0.811632 -0.542201
vn -0.142395 0.984702 0.100431
vn -0.300430 0.926193 0.227833
vn -0.108820 0.685781 0.719627
vn -0.219766 0.546253 0.808276
vn -0.024505 0.067471 0.997420
vn -0.031761 -0.093848 0.995080
vn 0.127015 -0.919475 0.372067
vn 0.278429 -0.933889 0.224338
vn 0.162520 -0.664117 0.729750
vn 0.067736 -0.557000 0.827746
vn 0.289665 -0.020533 -0.956908
vn 0.522968 -0.555897 -0.646130
vn -0.128596 0.593314 -0.794633
vn -0.446991 0.857580 -0.254472
vn -0.554326 0.673439 0.489083
vn -0.369737 0.164493 0.914460
vn -0.006475 -0.426213 0.904600
vn 0.530174 -0.845607 -0.062163
vn 0.344115 -0.801906 0.488398
vn 0.257812 0.067487 -0.963835
vn 0.516076 -0.508863 -0.689002
vn -0.158988 0.655234 -0.738506
vn -0.450839 0.869471 -0.201902
vn -0.549643 0.664401 0.506423
vn -0.383294 0.170166 0.907816
vn -0.027445 -0.427059 0.903807
vn 0.336141 -0.812973 0.475484
vn 0.531276 -0.841636 -0.096926
vn 0.068145 0.111349 -0.991442
vn 0.125664 -0.568759 -0.812848
vn -0.035872 0.787285 -0.615545
vn -0.111795 0.993725 -0.003643
vn -0.139138 0.725334 0.674190
vn -0.100849 0.171862 0.979946
vn -0.015740 -0.494051 0.869291
vn 0.123599 -0.959323 -0.253816
vn 0.073556 -0.932880 0.352598
vn 0.053626 0.078250 -0.995490
vn 0.093696 -0.579180 -0.809798
vn -0.022416 0.767514 -0.640641
vn -0.079375 0.996714 -0.016159
vn -0.100768 0.728168 0.677951
vn -0.072987 0.151912 0.985695
vn -0.010800 -0.520177 0.853990
vn 0.090971 -0.959311 -0.267295
vn 0.054440 -0.943262 0.327557
vn -0.452458 -0.827322 -0.332897
vn -0.182615 -0.939252 -0.290615
vn -0.104704 -0.536580 -0.837329
vn -0.225249 -0.438890 -0.869849
vn 0.042630 0.213145 -0.976090
vn 0.147241 0.237015 -0.960283
vn 0.153306 0.768192 -0.621593
vn 0.392587 0.710275 -0.584281
vn 0.195113 0.976131 0.095395
vn 0.469354 0.874341 0.123429
vn 0.140998 0.707290 0.692719
vn 0.339277 0.640723 0.688742
vn 0.020470 0.101610 0.994614
vn 0.050132 0.111081 0.992546
vn -0.105798 -0.542588 0.833310
vn -0.273502 -0.477018 0.835255
vn -0.177065 -0.911349 0.371605
vn -0.456737 -0.816951 0.352111
vn 0.126910 -0.573482 0.809328
vn -0.308061 -0.464316 0.830367
vn -0.551866 -0.760475 0.342231
vn -0.212706 -0.906990 0.363489
vn 0.452350 0.073997 0.888766
vn 0.138633 0.129678 0.981817
vn -0.568903 -0.735643 -0.367666
vn -0.494042 -0.804565 -0.329542
vn 0.554089 0.627079 0.547501
vn 0.487297 0.618454 0.616487
vn 0.427315 0.903423 0.035061
vn 0.598876 0.798572 0.060256
vn 0.192901 0.889467 -0.414292
vn 0.533751 0.737841 -0.413159
vn -0.251428 0.413666 -0.875022
vn 0.176994 0.288864 -0.940867
vn -0.489527 -0.162580 -0.856698
vn -0.222153 -0.234298 -0.946442
vn -0.551858 -0.760471 -0.342253
vn -0.212705 -0.906987 -0.363500
vn -0.470014 -0.849213 0.240675
vn -0.584826 -0.762921 0.275554
vn -0.308055 -0.464306 -0.830375
vn 0.126910 -0.573456 -0.809347
vn 0.138640 0.129688 -0.981815
vn 0.452350 0.074001 -0.888765
vn 0.487245 0.618385 -0.616598
vn 0.554093 0.627100 -0.547473
vn 0.590976 0.797297 0.122736
vn 0.357436 0.923955 0.136190
vn 0.384688 0.556480 0.736441
vn -0.038581 0.711892 0.701229
vn -0.032172 0.020273 0.999277
vn -0.399637 0.125387 0.908058
vn -0.412652 -0.501408 0.760466
vn -0.538132 -0.482497 0.691094
vn 0.011898 -0.957327 0.288762
vn 0.322323 -0.607192 0.726241
vn 0.533646 0.076773 0.842216
vn 0.469080 0.690797 0.550239
vn 0.187973 0.980307 0.060531
vn -0.101269 0.924708 -0.366961
vn -0.450599 0.387048 -0.804459
vn -0.531711 -0.203696 -0.822066
vn -0.354578 -0.858039 -0.371542
vn 0.322324 -0.607171 -0.726258
vn 0.011912 -0.957327 -0.288760
vn 0.533636 0.076787 -0.842221
vn 0.468824 0.691145 -0.550021
vn 0.083330 0.989833 0.115269
vn -0.316488 0.695788 0.644759
vn -0.516661 0.089752 0.851473
vn -0.309834 -0.906580 0.286558
vn -0.493302 -0.525770 0.692978
vn 0.125758 -0.965406 0.228421
vn 0.131695 -0.965730 0.223654
vn -0.193296 -0.866345 -0.460524
vn 0.090791 -0.850367 -0.518299
vn 0.093889 -0.590428 0.801611
vn 0.365897 -0.591296 0.718671
vn 0.002933 0.176879 0.984228
vn 0.433361 0.162718 0.886409
vn -0.080288 0.775734 0.625931
vn 0.248240 0.778192 0.576884
vn -0.120282 0.989489 0.080279
vn -0.012064 0.996883 0.077965
vn -0.123568 0.909756 -0.396328
vn -0.217505 0.911082 -0.350174
vn -0.068875 0.353150 -0.933028
vn -0.417584 0.370038 -0.829877
vn -0.004598 -0.189884 -0.981796
vn -0.413952 -0.181469 -0.892027
vn 0.131777 -0.965702 -0.223728
vn 0.125767 -0.965493 -0.228048
vn 0.099961 -0.903023 0.417799
vn -0.147503 -0.917939 0.368280
vn 0.365914 -0.591288 -0.718669
vn 0.093887 -0.590427 -0.801612
vn 0.433371 0.162766 -0.886395
vn 0.002914 0.176983 -0.984210
vn 0.248228 0.778797 -0.576072
vn -0.079908 0.773919 -0.628223
vn -0.104767 0.988578 0.108339
vn -0.125373 0.983606 0.129618
vn -0.346520 0.678217 0.648032
vn -0.102665 0.666413 0.738481
vn -0.429638 0.090063 0.898499
vn -0.037274 0.072842 0.996647
vn -0.344473 -0.535048 0.771403
vn 0.042209 -0.533087 0.845007
g Line001 Seatpost bike
f 81//1 10//2 20//3 11//4
f 11//4 20//3 21//5 12//6
f 12//6 21//5 22//7 13//8
f 13//8 22//7 23//9 14//10
f 14//10 23//9 24//11 15//12
f 15//12 24//11 25//13 16//14
f 16//14 25//13 26//15 17//16
f 17//16 26//15 27//17 18//18
f 18//18 27//17 10//2 81//1
f 10//2 19//19 29//20 20//3
f 20//3 29//20 30//21 21//5
f 21//5 30//21 31//22 22//7
f 22//7 31//22 32//23 23//9
f 23//9 32//23 33//24 24//11
f 24//11 33//24 34//25 25//13
f 25//13 34//25 35//26 26//15
f 26//15 35//26 36//27 27//17
f 27//17 36//27 19//19 10//2
f 19//19 28//28 38//29 29//20
f 29//20 38//29 39//30 30//21
f 30//21 39//30 40//31 31//22
f 31//22 40//31 41//32 32//23
f 32//23 41//32 42//33 33//24
f 33//24 42//33 43//34 34//25
f 34//25 43//34 44//35 35//26
f 35//26 44//35 45//36 36//27
f 36//27 45//36 28//28 19//19
f 28//28 37//37 47//38 38//29
f 38//29 47//38 48//39 39//30
f 39//30 48//39 49//40 40//31
f 40//31 49//40 50//41 41//32
f 41//32 50//41 51//42 42//33
f 42//33 51//42 52//43 43//34
f 43//34 52//43 53//44 44//35
f 44//35 53//44 54//45 45//36
f 45//36 54//45 37//37 28//28
f 37//37 46//46 55//47 47//38
f 47//38 55//47 56//48 48//39
f 48//39 56//48 57//49 49//40
f 49//40 57//49 58//50 50//41
f 50//41 58//50 59//51 51//42
f 51//42 59//51 60//52 52//43
f 52//43 60//52 61//53 53//44
f 53//44 61//53 62//54 54//45
f 54//45 62//54 46//46 37//37
f 71//55 63//56 73//57 72//58
f 63//56 64//59 74//60 73//57
f 75//61 74//60 64//59 65//62
f 65//62 66//63 77//64 75//61
f 66//63 67//65 76//66 77//64
f 67//65 68//67 78//68 76//66
f 68//67 69//69 79//70 78//68
f 69//69 70//71 80//72 79//70
f 70//71 71//55 72//58 80//72
f 95//73 96//74 100//75 99//76
f 96//74 97//77 101//78 100//75
f 101//78 97//77 98//79 102//80
f 98//79 103//81 107//82 102//80
f 104//83 108//84 107//82 103//81
f 104//83 105//85 109//86 108//84
f 106//87 95//73 99//76 110//88
f 106//87 110//88 158//89 159//90
f 99//76 100//75 112//91 111//92
f 100//75 101//78 113//93 112//91
f 113//93 101//78 102//80 114//94
f 102//80 107//82 115//95 114//94
f 107//82 108//84 116//96 115//95
f 108//84 109//86 117//97 116//96
f 110//88 99//76 111//92 118//98
f 158//89 110//88 118//98 157//99
f 111//92 112//91 120//100 119//101
f 112//91 113//93 121//102 120//100
f 121//102 113//93 114//94 122//103
f 114//94 115//95 123//104 122//103
f 123//104 115//95 116//96 124//105
f 116//96 117//97 125//106 124//105
f 156//107 157//99 118//98 126//108
f 125//106 117//97 157//99 156//107
f 118//98 111//92 119//101 126//108
f 119//101 120//100 128//109 127//110
f 120//100 121//102 129//111 128//109
f 129//111 121//102 122//103 130//112
f 122//103 123//104 135//113 130//112
f 123//104 124//105 136//114 135//113
f 124//105 125//106 137//115 136//114
f 126//108 119//101 127//110 138//116
f 156//107 126//108 138//116 155//117
f 127//110 128//109 132//118 131//119
f 128//109 129//111 133//120 132//118
f 134//121 133//120 129//111 130//112
f 130//112 135//113 139//122 134//121
f 135//113 136//114 140//123 139//122
f 136//114 137//115 141//124 140//123
f 138//116 127//110 131//119 142//125
f 155//117 138//116 142//125 154//126
f 82//127 143//128 144//129 145//130
f 145//130 144//129 146//131 147//132
f 147//132 146//131 149//133 148//134
f 148//134 149//133 150//135 83//136
f 83//136 150//135 151//137 84//138
f 84//138 151//137 152//139 85//140
f 85//140 152//139 162//141 161//142
f 161//142 162//141 153//143 86//144
f 86//144 153//143 143//128 82//127
f 137//115 155//117 154//126 141//124
f 125//106 156//107 155//117 137//115
f 109//86 158//89 157//99 117//97
f 105//85 159//90 158//89 109//86
f 163//145 164//146 166//147 165//148
f 164//146 163//145 167//149 168//150
f 165//148 166//147 180//151 179//152
f 168//150 167//149 169//153 170//154
f 170//154 169//153 171//155 172//156
f 172//156 171//155 173//157 174//158
f 174//158 173//157 175//159 176//160
f 176//160 175//159 177//161 178//162
f 178//162 177//161 179//152 180//151
f 181//163 182//164 195//165 196//166
f 182//164 181//163 184//167 183//168
f 183//168 184//167 186//169 185//170
f 185//170 186//169 188//171 187//172
f 187//172 188//171 190//173 189//174
f 189//174 190//173 192//175 191//176
f 191//176 192//175 194//177 193//178
f 193//178 194//177 198//179 197//180
f 196//166 195//165 197//180 198//179
f 165//148 1//181 2//182 163//145
f 163//145 2//182 3//183 167//149
f 167//149 3//183 4//184 169//153
f 169//153 4//184 5//185 171//155
f 171//155 5//185 6//186 173//157
f 173//157 6//186 7//187 175//159
f 175//159 7//187 8//188 177//161
f 177//161 8//188 9//189 179//152
f 179//152 9//189 1//181 165//148
f 71//55 166//147 164//146 63//56
f 63//56 164//146 168//150 64//59
f 64//59 168//150 170//154 65//62
f 65//62 170//154 172//156 66//63
f 66//63 172//156 174//158 67//65
f 67//65 174//158 176//160 68//67
f 68//67 176//160 178//162 69//69
f 69//69 178//162 180//151 70//71
f 70//71 180//151 166//147 71//55
f 182//164 183//168 88//190 87//191
f 183//168 185//170 89//192 88//190
f 89//192 185//170 187//172 90//193
f 187//172 189//174 91//194 90//193
f 191//176 92//195 91//194 189//174
f 191//176 193//178 93//196 92//195
f 195//165 94//197 160//198 197//180
f 195//165 182//164 87//191 94//197
f 82//127 145//130 184//167 181//163
f 145//130 147//132 186//169 184//167
f 186//169 147//132 148//134 188//171
f 148//134 83//136 190//173 188//171
f 83//136 84//138 192//175 190//173
f 84//138 85//140 194//177 192//175
f 161//142 86//144 196//166 198//179
f 86//144 82//127 181//163 196//166
f 193//178 197//180 160//198 93//196
f 85//140 161//142 198//179 194//177
f 199//199 200//200 215//201 216//202
f 200//200 199//199 202//203 201//204
f 201//204 202//203 204//205 203//206
f 203//206 204//205 206//207 205//208
f 205//208 206//207 208//209 207//210
f 207//210 208//209 210//211 209//212
f 209//212 210//211 212//213 211//214
f 211//214 212//213 214//215 213//216
f 213//216 214//215 216//202 215//201
f 217//217 218//218 232//219 231//220
f 218//218 217//217 219//221 220//222
f 220//222 219//221 221//223 222//224
f 222//224 221//223 223//225 224//226
f 224//226 223//225 225//227 226//228
f 226//228 225//227 227//229 228//230
f 228//230 227//229 230//231 229//232
f 229//232 230//231 234//233 233//234
f 231//220 232//219 233//234 234//233
f 1//181 200//200 201//204 2//182
f 2//182 201//204 203//206 3//183
f 3//183 203//206 205//208 4//184
f 4//184 205//208 207//210 5//185
f 5//185 207//210 209//212 6//186
f 6//186 209//212 211//214 7//187
f 7//187 211//214 213//216 8//188
f 8//188 213//216 215//201 9//189
f 9//189 215//201 200//200 1//181
f 199//199 81//1 11//4 202//203
f 202//203 11//4 12//6 204//205
f 204//205 12//6 13//8 206//207
f 206//207 13//8 14//10 208//209
f 208//209 14//10 15//12 210//211
f 210//211 15//12 16//14 212//213
f 212//213 16//14 17//16 214//215
f 214//215 17//16 18//18 216//202
f 216//202 18//18 81//1 199//199
f 87//191 88//190 219//221 217//217
f 88//190 89//192 221//223 219//221
f 221//223 89//192 90//193 223//225
f 90//193 91//194 225//227 223//225
f 91//194 92//195 227//229 225//227
f 92//195 93//196 230//231 227//229
f 160//198 94//197 231//220 234//233
f 94//197 87//191 217//217 231//220
f 218//218 220//222 96//74 95//73
f 220//222 222//224 97//77 96//74
f 97//77 222//224 224//226 98//79
f 224//226 226//228 103//81 98//79
f 226//228 228//230 104//83 103//81
f 228//230 229//232 105//85 104//83
f 233//234 232//219 106//87 159//90
f 232//219 218//218 95//73 106//87
f 229//232 233//234 159//90 105//85
f 93//196 160//198 234//233 230//231
