# This file uses centimeters as units for non-parametric coordinates.

v -8.175821 53.309448 0.093880
v -8.175941 53.308491 -0.102272
v -8.169460 53.361668 -0.183144
v -8.008809 54.673431 -0.364838
v -8.154054 53.487690 -0.259132
v -7.963614 55.047684 -0.691376
v -7.911298 55.486214 -0.840054
v -7.862325 55.896778 -0.763283
v -7.808204 56.350479 -0.192108
v -7.808204 56.350483 0.182533
v -7.831140 56.158211 0.556183
v -7.954116 55.127304 0.732040
v -8.009558 54.667324 0.342598
v -8.146372 53.550331 0.257530
v -7.962608 53.314091 0.095215
v -7.962847 53.395515 0.202484
v -7.962708 53.313278 -0.103874
v -7.959180 53.363113 -0.185509
v -7.783360 54.686905 -0.369148
v -7.741218 55.036453 -0.672760
v -7.690487 55.461754 -0.817394
v -7.642994 55.859924 -0.742722
v -7.605968 56.170341 -0.478745
v -7.590508 56.299942 -0.187035
v -7.590508 56.299942 0.177460
v -7.612753 56.113472 0.541000
v -7.642994 55.859932 0.733147
v -7.690520 55.461464 0.812988
v -7.732005 55.113670 0.712051
v -7.783995 54.681740 0.348854
v -7.917929 53.405746 -0.105515
v -7.698650 54.603134 -0.149841
v -7.634401 55.118835 -0.539169
v -7.593815 55.459076 -0.654869
v -7.555819 55.777622 -0.595131
v -7.526202 56.025944 -0.383949
v -7.555819 55.777615 0.585556
v -7.593846 55.458843 0.649414
v -7.692246 54.603138 0.174217
v -7.622490 55.029301 0.064278
v -7.622490 55.029297 -0.073814
v -7.609120 55.140224 -0.180588
v -7.593856 55.268047 -0.265465
v -7.572484 55.447224 -0.310745
v -7.544713 55.680042 -0.282173
v -7.525292 55.842834 -0.182953
v -7.513833 56.129623 -0.150566
v -7.513833 56.129623 0.141029
v -7.525292 55.842838 0.173378
v -7.531629 55.980453 0.431824
v -7.544713 55.680038 0.272636
v -7.569638 55.471054 0.302620
v -7.627034 55.180618 0.568695
v -7.593856 55.268044 0.255928
v -7.609120 55.140224 0.171013
v -7.659159 54.911453 0.362854
v -7.659144 54.911541 -0.372620
v -7.934370 53.435448 -0.213072
v -7.917867 53.406227 0.096321
v -7.922173 53.481827 0.212440
v -8.164649 53.401070 0.203781
v -8.014970 54.694954 -0.235786
v -7.952747 55.211647 -0.499840
v -7.932115 55.384445 -0.533066
v -7.910666 55.563992 -0.539780
v -7.874432 55.867390 -0.487556
v -7.824144 56.216850 -0.491943
v -7.830196 56.278522 -0.078773
v -7.830192 56.278522 0.069046
v -7.844534 56.117748 0.352135
v -7.862325 55.896786 0.753708
v -7.911334 55.485920 0.835762
v -7.962441 55.130508 0.464020
v -8.015466 54.690922 0.214424
v -8.146639 53.620094 0.161247
v -8.174396 53.392956 0.070000
v -8.174496 53.392166 -0.079002
v -8.168669 53.440071 -0.119362
v -8.164158 53.477032 0.127640
v -8.153930 53.560635 -0.167351
v -7.837825 56.173897 -0.314903
v -7.874432 55.867393 0.477829
v -7.921424 55.473934 0.530014
v -7.932115 55.384445 0.523300
v -7.952747 55.211655 0.490074
v -7.971549 55.054256 0.432053
v -7.971549 55.054260 -0.441818
v -8.153758 53.562000 0.153732
vt 0.080165 -0.689383
vt 0.135720 -0.689383
vt -0.864280 -0.689383
vt -0.837370 -0.689383
vt -0.808724 -0.689383
vt -0.812196 -0.689383
vt -0.808724 -0.689383
vt -0.808724 -0.689383
vt -0.808724 -0.689383
vt -0.837370 -0.689383
vt 0.053255 -0.689383
vt 0.024609 -0.689383
vt 0.024609 -0.689383
vt 0.024609 -0.689383
vt 0.025477 -0.689383
vt 0.080165 -0.689383
vt 0.043996 -0.689383
vt -0.864280 -0.689383
vt 0.135720 -0.689383
vt -0.837876 -0.689383
vt -0.808724 -0.689383
vt -0.808724 -0.689383
vt -0.808724 -0.689383
vt -0.809063 -0.689383
vt -0.815516 -0.689383
vt -0.837370 -0.689383
vt 0.053255 -0.689383
vt 0.024609 -0.689383
vt 0.024609 -0.689383
vt 0.024609 -0.689383
vt 0.024609 -0.689383
vt 0.024609 -0.689383
vt 0.137361 -0.689383
vt -0.864259 -0.689383
vt -0.843092 -0.689383
vt -0.808724 -0.689383
vt -0.808724 -0.689383
vt -0.808731 -0.689383
vt -0.808878 -0.689383
vt 0.024609 -0.689383
vt 0.024609 -0.689383
vt 0.032006 -0.689383
vt -0.042940 -0.689383
vt 0.157447 -0.689383
vt -0.379736 -0.689383
vt -0.815370 -0.689383
vt -0.385390 -0.689383
vt -0.808831 -0.689383
vt 0.035902 -0.689383
vt -0.387805 -0.689383
vt -0.808724 -0.689383
vt -0.837370 -0.689383
vt 0.053255 -0.689383
vt 0.024609 -0.689383
vt 0.024609 -0.689383
vt -0.396325 -0.689383
vt -0.820815 -0.689383
vt 0.024609 -0.689383
vt 0.024609 -0.689383
vt -0.374267 -0.689383
vt 0.024609 -0.689383
vt 0.028921 -0.689383
vt -0.808724 -0.689383
vt -0.837707 -0.689383
vt 0.080165 -0.689383
vt 0.042152 -0.689383
vt 0.041970 -0.689383
vt -0.800004 -0.689383
vt -0.664102 -0.689383
vt -0.662828 -0.689383
vt -0.673286 -0.689383
vt -0.678515 -0.689383
vt -0.808724 -0.689383
vt -0.275705 -0.689383
vt -0.021336 -0.689383
vt 0.024609 -0.689383
vt -0.064909 -0.689383
vt 0.024609 -0.689383
vt 0.024609 -0.689383
vt 0.024609 -0.689383
vt 0.024609 -0.689383
vt -0.808724 -0.689383
vt 0.024609 -0.689383
vt -0.808724 -0.689383
vt 0.080165 -0.689383
vt 0.135720 -0.689383
vt -0.864280 -0.689383
vt -0.836502 -0.689383
vt -0.808724 -0.689383
vt 0.038498 -0.689383
vt -0.809158 -0.689383
vt -0.539257 -0.689383
vt -0.105599 -0.689383
vt 0.024609 -0.689383
vt 0.131704 -0.689383
vt 0.119823 -0.689383
vt 0.084182 -0.689383
vt -0.668743 -0.689383
vt -0.808724 -0.689383
vt -0.808724 -0.689383
vn -0.357459 -0.502147 0.787446
vn -0.281842 -0.923825 0.259061
vn 0.305867 -0.919591 0.246572
vn 0.221001 -0.556437 0.800960
vn -0.269408 -0.947798 -0.170582
vn 0.322240 -0.932690 -0.162023
vn -0.365617 -0.597087 -0.714011
vn 0.225151 -0.651889 -0.724119
vn -0.220838 -0.101792 -0.969984
vn -0.461546 -0.166247 -0.871400
vn 0.444784 -0.325830 -0.834268
vn 0.581319 -0.189133 -0.791390
vn -0.597830 -0.347505 -0.722385
vn 0.373287 -0.496173 -0.783881
vn -0.549752 -0.004686 -0.835315
vn 0.429785 -0.126394 -0.894041
vn -0.564196 0.407901 -0.717844
vn 0.486655 0.328298 -0.809560
vn -0.440313 0.720755 -0.535385
vn 0.529957 0.639559 -0.556875
vn -0.112774 0.974025 -0.196359
vn 0.555590 0.812979 -0.174317
vn -0.172908 0.953684 0.246148
vn 0.550230 0.804669 0.223057
vn -0.400793 0.733031 0.549573
vn 0.530061 0.638709 0.557751
vn -0.648853 0.355595 0.672712
vn 0.485359 0.286691 0.825975
vn -0.700504 0.063519 0.710816
vn 0.440039 -0.077735 0.894608
vn -0.622397 -0.343726 0.703189
vn 0.366448 -0.505209 0.781332
vn -0.496290 -0.169642 0.851421
vn 0.387408 -0.339339 0.857184
vn -0.231256 -0.076628 0.969871
vn 0.579900 -0.175184 0.795629
vn 0.974901 -0.202108 0.093379
vn 0.972606 -0.184411 0.141526
vn 0.972810 -0.194260 -0.126109
vn 0.972612 -0.182674 -0.143720
vn 0.923025 -0.260878 -0.282784
vn 0.932074 -0.291027 -0.215736
vn 0.943172 -0.137608 -0.302474
vn 0.960922 0.014137 -0.276458
vn 0.965520 0.147631 -0.214422
vn 0.980855 0.186825 -0.054964
vn 0.978095 0.194375 0.074496
vn 0.966235 0.145992 0.212314
vn 0.961598 -0.002852 0.274446
vn 0.948330 -0.121219 0.293216
vn 0.924204 -0.262463 0.277418
vn 0.925780 -0.293508 0.238296
vn 0.986523 -0.160937 -0.029536
vn 0.987756 -0.154816 0.019265
vn 0.988377 -0.147720 -0.035915
vn 0.990465 -0.133747 -0.033035
vn 0.992111 -0.120967 -0.032920
vn 0.993953 -0.104849 -0.032629
vn 0.996886 -0.076135 -0.020539
vn 0.996944 -0.075830 0.018800
vn 0.993851 -0.106272 0.031092
vn 0.992342 -0.119415 0.031596
vn 0.990374 -0.134422 0.033005
vn 0.988837 -0.143776 0.039118
vn -0.992602 0.119349 -0.022308
vn -0.992900 0.118236 -0.013047
vn -0.993918 0.108220 -0.020369
vn -0.993404 0.113495 -0.016329
vn -0.993243 0.115527 -0.011007
vn -0.992789 0.119650 -0.007336
vn -0.992444 0.122411 -0.008458
vn -0.991436 0.130157 -0.010670
vn -0.989404 0.144973 -0.007944
vn -0.988926 0.148196 0.007935
vn -0.991365 0.130666 0.011009
vn -0.992552 0.121549 0.008157
vn -0.992932 0.118233 0.010307
vn -0.994394 0.099063 0.036963
vn -0.992350 0.106389 0.062641
vn -0.990417 0.115282 0.076048
vn -0.993844 0.106129 0.031791
vn -0.997586 0.065882 0.021967
vn -0.997710 0.066336 -0.013207
vn -0.994224 0.103884 -0.026972
vn -0.992944 0.118588 0.000000
vn -0.992947 0.118561 0.000000
vn -0.992664 0.120903 -0.000002
vn -0.992776 0.119985 -0.000007
vn -0.992581 0.121584 0.000002
g Object024 Shock bike
f 61/67/1 1/1/2 15/16/3 16/17/4
f 1/1/2 2/2/5 17/19/6 15/16/3
f 2/3/5 3/4/7 18/20/8 17/18/6
f 5/6/9 4/5/10 19/21/11 58/64/12
f 4/5/10 6/7/13 20/22/14 19/21/11
f 20/22/14 6/7/13 7/8/15 21/23/16
f 8/9/17 22/24/18 21/23/16 7/8/15
f 22/24/18 8/9/17 67/73/19 23/25/20
f 67/73/19 9/10/21 24/26/22 23/25/20
f 10/11/23 25/27/24 24/26/22 9/10/21
f 25/27/24 10/11/23 11/12/25 26/28/26
f 26/28/26 11/12/25 71/78/27 27/29/28
f 27/29/28 71/78/27 72/79/29 28/30/30
f 28/30/30 72/79/29 12/13/31 29/31/32
f 13/14/33 30/32/34 29/31/32 12/13/31
f 13/14/33 14/15/35 60/66/36 30/32/34
f 60/66/36 59/65/37 39/42/38 30/32/34
f 59/65/37 31/33/39 32/44/40 39/42/38
f 32/35/40 31/34/39 58/64/12 19/21/11
f 19/21/11 20/22/14 33/36/41 57/63/42
f 33/36/41 20/22/14 21/23/16 34/37/43
f 22/24/18 35/38/44 34/37/43 21/23/16
f 22/24/18 23/25/20 36/39/45 35/38/44
f 23/25/20 24/26/22 47/52/46 36/39/45
f 47/52/46 24/26/22 25/27/24 48/53/47
f 48/53/47 25/27/24 26/28/26 50/54/48
f 26/28/26 27/29/28 37/40/49 50/54/48
f 37/40/49 27/29/28 28/30/30 38/41/50
f 28/30/30 29/31/32 53/59/51 38/41/50
f 29/31/32 30/32/34 56/61/52 53/59/51
f 39/42/38 32/44/40 41/45/53 40/43/54
f 32/35/40 57/63/42 42/46/55 41/45/53
f 57/63/42 33/36/41 43/47/56 42/46/55
f 43/47/56 33/36/41 34/37/43 44/48/57
f 35/38/44 45/50/58 44/48/57 34/37/43
f 45/50/58 35/38/44 36/39/45 46/51/59
f 36/39/45 47/52/46 46/51/59
f 46/51/59 47/52/46 48/53/47 49/55/60
f 48/53/47 50/54/48 49/55/60
f 49/55/60 50/54/48 37/40/49 51/56/61
f 51/56/61 37/40/49 38/41/50 52/58/62
f 52/58/62 38/41/50 53/59/51 54/60/63
f 53/59/51 56/61/52 55/62/64 54/60/63
f 56/61/52 39/42/38 40/43/54 55/62/64
f 44/49/57 45/50/58 51/56/61 52/57/62
f 52/57/62 54/60/63 43/47/56 44/49/57
f 5/6/9 58/64/12 18/20/8 3/4/7
f 58/64/12 31/34/39 17/18/6 18/20/8
f 31/33/39 59/65/37 15/16/3 17/19/6
f 59/65/37 60/66/36 16/17/4 15/16/3
f 60/66/36 14/15/35 61/67/1 16/17/4
f 4/5/10 5/6/9 80/91/65 62/68/66
f 6/7/13 4/5/10 62/68/66 87/98/67
f 63/69/68 64/70/69 7/8/15 6/7/13 87/98/67
f 7/8/15 64/70/69 65/71/70
f 66/72/71 8/9/17 7/8/15 65/71/70
f 81/92/72 67/73/19 8/9/17 66/72/71
f 9/10/21 67/73/19 81/92/72 68/74/73
f 68/74/73 69/76/74 10/11/23 9/10/21
f 70/77/75 11/12/25 10/11/23 69/76/74
f 82/93/76 71/78/27 11/12/25 70/77/75
f 71/78/27 82/93/76 83/94/77 72/79/29
f 12/13/31 72/79/29 83/94/77 73/80/78
f 73/80/78 74/81/79 13/14/33 12/13/31
f 14/15/35 13/14/33 74/81/79 75/83/80
f 1/1/2 61/67/1 79/90/81 76/85/82
f 2/2/5 1/1/2 76/85/82 77/86/83
f 3/4/7 2/3/5 77/87/83 78/88/84
f 61/67/1 14/15/35 75/83/80 79/90/81
f 5/6/9 3/4/7 78/88/84 80/91/65
f 70/77/75 69/76/74 68/75/73 81/92/72
f 82/93/76 70/77/75 81/92/72 66/72/71
f 82/93/76 66/72/71 65/71/70 83/94/77
f 84/95/85 83/94/77 65/71/70 64/70/69
f 85/96/86 84/95/85 64/70/69 63/69/68
f 74/82/87 86/97/88 87/98/67 62/68/66
f 88/99/89 74/82/87 62/68/66 80/91/65
f 79/100/81 88/99/89 80/91/65 78/88/84
f 76/84/82 79/100/81 78/88/84 77/89/83
f 41/45/53 42/46/55 55/62/64 40/43/54
f 42/46/55 43/47/56 54/60/63 55/62/64
f 49/55/60 51/56/61 45/50/58 46/51/59
f 32/35/40 19/21/11 57/63/42
f 30/32/34 39/42/38 56/61/52
